:SAMPLES-PER-SECOND 30
:FULLY-SPECIFIED
:DEGREES
93
root  -0.623133 39.081 25.6912 -177.42 -45.1781 173.53
RightUpLeg  -19.0478 -4.90313 -2.06716
RightLeg  -4.86593 -13.8594 6.95179
RightFoot  -1.12505 -0.513399 5.73776
RightToes  5.82063e-011 0 -3.6325e-017
Spine  5.8611 -2.49655 -3.79037
Spine1  9.97233 -3.50786 2.47391
HEad  -8.00958 1.69625 -0.909605
LeftShoulder1  6.89279 -10.376 -43.1752
LeftArm  -18.0359 -4.64176 -11.6528
LeftForeArm  19.1146 -19.3671 -3.66396
LeftHand  -0.244104 0.0205437 5.32207
RightShoulder  5.64656 9.03182 38.959
RightArm  -11.236 -23.4711 27.7448
RightForeArm  6.5542 4.10744 5.14557
RightHand  -0.893518 1.38135 -15.4144
LeftUpLeg  15.5895 7.04923 -0.891069
LeftLeg  9.27875 15.0821 -4.13109
LeftFoot  -17.7658 -0.176365 -5.06
LeftToes  1.2005e-010 6.1915e-012 3.32694e-011
94
root  -1.81804 38.9288 24.8182 -178.61 -45.2168 174.754
RightUpLeg  -19.7775 -5.22494 -1.01519
RightLeg  -0.185371 -15.9997 6.17682
RightFoot  2.33382 -0.0882495 0.978768
RightToes  5.82063e-011 0 -3.6325e-017
Spine  5.80509 -2.55347 -2.02346
Spine1  10.3764 -3.73772 2.85969
HEad  -8.33783 1.07536 -1.25763
LeftShoulder1  6.8787 -10.4143 -42.956
LeftArm  -17.951 -4.86352 -12.568
LeftForeArm  19.4813 -22.438 -3.87462
LeftHand  -0.244104 0.0205437 5.32207
RightShoulder  5.70137 9.10849 39.1125
RightArm  -11.5847 -23.9196 27.7093
RightForeArm  7.84721 3.25515 4.83704
RightHand  -0.912961 1.57601 -15.3193
LeftUpLeg  17.9911 8.46113 0.557447
LeftLeg  10.2923 12.7732 -3.44996
LeftFoot  -17.6786 -0.253144 -6.44669
LeftToes  1.2005e-010 6.1915e-012 3.32694e-011
95
root  -3.109 38.8013 23.8153 179.276 -45.205 177.173
RightUpLeg  -21.2165 -7.3517 1.73487
RightLeg  7.10261 -14.3258 3.83835
RightFoot  5.70919 0.754077 -4.79998
RightToes  5.82063e-011 0 -3.6325e-017
Spine  5.64212 -2.80127 0.91798
Spine1  10.4343 -3.94781 2.8935
HEad  -8.45466 0.719556 -1.71289
LeftShoulder1  6.92618 -10.4221 -43.245
LeftArm  -17.9924 -3.53489 -13.7097
LeftForeArm  21.0754 -26.582 -4.574
LeftHand  -0.244104 0.0205437 5.32207
RightShoulder  5.76931 9.12462 39.5701
RightArm  -11.5342 -23.9488 27.4843
RightForeArm  8.89056 3.0595 4.73244
RightHand  -0.929475 1.65974 -15.4132
LeftUpLeg  20.3938 12.1519 4.04197
LeftLeg  12.3858 7.70602 -2.19084
LeftFoot  -17.3544 -0.413655 -9.82954
LeftToes  1.2005e-010 6.1915e-012 3.32694e-011
96
root  -4.37627 38.7537 22.7587 177.057 -44.5855 179.877
RightUpLeg  -22.2614 -12.0329 6.16105
RightLeg  13.1487 -8.19662 1.19137
RightFoot  6.52648 1.41655 -8.75685
RightToes  5.82063e-011 0 -3.6325e-017
Spine  5.58869 -2.90793 3.86853
Spine1  10.0933 -3.93346 3.08092
HEad  -8.25433 0.745267 -2.09031
LeftShoulder1  7.00119 -10.3888 -43.8501
LeftArm  -18.0296 -0.728009 -15.3283
LeftForeArm  23.8136 -31.3503 -5.53483
LeftHand  -0.244104 0.0205437 5.32207
RightShoulder  5.85555 9.15219 40.1218
RightArm  -11.8877 -23.3429 27.4668
RightForeArm  9.11058 3.08519 4.63401
RightHand  -0.948475 1.78497 -15.4588
LeftUpLeg  21.7076 16.9646 8.33389
LeftLeg  16.285 1.75952 -0.416403
LeftFoot  -15.1967 -0.404875 -15.2482
LeftToes  1.2005e-010 6.1915e-012 3.32694e-011
97
root  -5.52918 38.7775 21.6857 175.679 -43.7183 -178.372
RightUpLeg  -22.4689 -14.6447 9.08064
RightLeg  17.7809 -4.38941 -0.722796
RightFoot  4.20403 1.46622 -10.485
RightToes  5.82063e-011 0 -3.6325e-017
Spine  5.68595 -2.8479 5.39616
Spine1  9.56389 -3.81276 3.67108
HEad  -8.00383 1.03966 -1.87759
LeftShoulder1  7.02549 -10.3104 -44.2712
LeftArm  -17.9609 2.98966 -17.6003
LeftForeArm  27.3222 -36.2372 -6.57682
LeftHand  -0.244104 0.0205437 5.32207
RightShoulder  5.97594 9.29355 40.5282
RightArm  -12.8891 -21.9244 28.2834
RightForeArm  8.56286 3.18987 4.49058
RightHand  -0.993533 2.09648 -15.5284
LeftUpLeg  19.3652 16.3716 9.52084
LeftLeg  24.2996 2.08037 1.60471
LeftFoot  -8.8083 0.454297 -18.6828
LeftToes  1.2005e-010 6.1915e-012 3.32694e-011
98
root  -6.54151 38.8388 20.669 174.814 -43.5939 -177.157
RightUpLeg  -21.4571 -15.0049 9.951
RightLeg  20.6434 -4.15822 -1.68075
RightFoot  0.973177 1.18684 -10.8819
RightToes  5.82063e-011 0 -3.6325e-017
Spine  5.85025 -2.94233 6.41512
Spine1  9.23634 -3.73026 3.99732
HEad  -8.04887 0.984887 -0.790781
LeftShoulder1  7.02967 -10.289 -44.3708
LeftArm  -17.4875 6.41388 -20.1721
LeftForeArm  30.7713 -40.2773 -7.50748
LeftHand  -0.244104 0.0205437 5.32207
RightShoulder  6.11826 9.50305 40.8508
RightArm  -13.974 -19.8415 30.0676
RightForeArm  7.47114 3.87179 4.4981
RightHand  -1.07709 2.49482 -15.9848
LeftUpLeg  13.3592 12.024 8.63481
LeftLeg  35.8146 4.68883 3.95799
LeftFoot  1.7498 1.83161 -16.3591
LeftToes  1.2005e-010 6.1915e-012 3.32694e-011
99
root  -7.45155 38.8608 19.7802 173.688 -44.2601 -175.573
RightUpLeg  -20.1767 -15.1593 10.3146
RightLeg  22.712 -4.922 -2.00495
RightFoot  -1.92242 0.871747 -10.69
RightToes  5.82063e-011 0 -3.6325e-017
Spine  6.04678 -3.1747 8.66589
Spine1  9.39851 -3.36785 3.31075
HEad  -8.48622 0.00808043 0.681532
LeftShoulder1  7.1575 -10.4884 -44.5422
LeftArm  -16.27 8.52545 -22.4995
LeftForeArm  33.345 -42.3268 -7.9752
LeftHand  -0.244104 0.0205437 5.32207
RightShoulder  6.2508 9.66128 41.2657
RightArm  -14.0426 -17.2561 32.1188
RightForeArm  6.24165 5.5117 4.93178
RightHand  -1.18006 2.84746 -16.7568
LeftUpLeg  5.93486 7.70466 8.13772
LeftLeg  47.5323 4.37413 5.47946
LeftFoot  10.331 2.08566 -11.0955
LeftToes  1.2005e-010 6.1915e-012 3.32694e-011
100
root  -8.37807 39.0034 18.9037 172.868 -44.4666 -174.712
RightUpLeg  -18.018 -14.7195 9.86958
RightLeg  23.5776 -5.70911 -1.86384
RightFoot  -4.1434 0.618548 -10.2416
RightToes  5.82063e-011 0 -3.6325e-017
Spine  6.12015 -2.87899 11.0717
Spine1  9.83169 -2.29644 1.728
HEad  -9.00777 -1.57825 1.69175
LeftShoulder1  7.43369 -10.8585 -45.0948
LeftArm  -14.4971 9.5338 -24.4837
LeftForeArm  34.7534 -42.0042 -7.7892
LeftHand  -0.244104 0.0205437 5.32207
RightShoulder  6.38168 9.79692 41.7333
RightArm  -12.2175 -13.9734 33.5457
RightForeArm  5.75823 7.6452 5.79469
RightHand  -1.2743 3.17775 -17.3904
LeftUpLeg  -0.723941 4.82736 7.68944
LeftLeg  56.4621 3.37439 5.98952
LeftFoot  12.201 1.56992 -7.82982
LeftToes  1.2005e-010 6.1915e-012 3.32694e-011
101
root  -9.34179 39.3204 17.9508 173.193 -43.5443 -175.639
RightUpLeg  -14.7077 -13.3473 8.25071
RightLeg  22.9096 -6.21072 -1.38859
RightFoot  -5.81627 0.431821 -9.72976
RightToes  5.82063e-011 0 -3.6325e-017
Spine  6.05883 -1.89911 11.9547
Spine1  10.1637 -0.707285 -0.0329162
HEad  -9.1204 -2.8628 1.89419
LeftShoulder1  7.67552 -11.1152 -45.7721
LeftArm  -12.795 10.5291 -26.4195
LeftForeArm  34.8394 -39.8126 -7.12404
LeftHand  -0.244104 0.0205437 5.32207
RightShoulder  6.52991 10.0148 42.0358
RightArm  -8.17331 -9.76822 34.2151
RightForeArm  6.46508 9.62179 6.74201
RightHand  -1.34977 3.517 -17.7178
LeftUpLeg  -6.12214 4.01965 6.60439
LeftLeg  61.4226 3.03842 6.62726
LeftFoot  9.37155 1.20499 -6.91858
LeftToes  1.2005e-010 6.1915e-012 3.32694e-011
102
root  -10.2894 39.623 16.9869 174.057 -42.1317 -177.184
RightUpLeg  -11.3171 -11.6301 6.30293
RightLeg  21.7412 -6.48483 -0.656173
RightFoot  -7.32834 0.2753 -9.23836
RightToes  5.82063e-011 0 -3.6325e-017
Spine  5.97504 -0.881303 12.152
Spine1  10.2514 0.821748 -1.66756
HEad  -8.6778 -3.42742 1.53633
LeftShoulder1  7.74936 -11.1257 -46.1915
LeftArm  -11.5167 12.1129 -28.3616
LeftForeArm  33.2478 -36.2746 -6.23681
LeftHand  -0.244104 0.0205437 5.32207
RightShoulder  6.63775 10.2478 42.004
RightArm  -2.06427 -4.92626 34.7223
RightForeArm  7.25092 11.6534 7.32264
RightHand  -1.38489 3.69292 -17.8276
LeftUpLeg  -10.8646 3.9203 5.2719
LeftLeg  62.7269 3.07115 7.07558
LeftFoot  5.7312 0.955422 -6.57869
LeftToes  1.2005e-010 6.1915e-012 3.32694e-011
103
root  -11.2326 39.8569 16.0356 174.744 -40.8313 -178.306
RightUpLeg  -8.16596 -10.0513 4.60114
RightLeg  20.4415 -6.6696 0.321928
RightFoot  -8.69062 0.146882 -8.86792
RightToes  5.82063e-011 0 -3.6325e-017
Spine  5.8753 -0.159068 12.7533
Spine1  10.0675 2.06017 -3.47975
HEad  -7.99272 -3.56802 0.880703
LeftShoulder1  7.74302 -11.0415 -46.4262
LeftArm  -10.2716 13.9606 -29.9773
LeftForeArm  30.0025 -31.5223 -5.21693
LeftHand  -0.244104 0.0205437 5.32207
RightShoulder  6.6334 10.3424 41.6658
RightArm  5.29226 -0.124599 35.422
RightForeArm  6.26566 14.4433 7.18502
RightHand  -1.35251 3.57718 -17.6365
LeftUpLeg  -15.0806 3.54101 4.14462
LeftLeg  60.9487 3.30912 7.01544
LeftFoot  3.01224 0.633334 -5.16438
LeftToes  1.2005e-010 6.1915e-012 3.32694e-011
